<svg width="150" height="150" version="1.1" xmlns="http://www.w3.org/2000/svg" desc="Created with imagetracer.js version 1.2.6" ><path fill="rgb(47,47,11)" stroke="rgb(47,47,11)" stroke-width="1" opacity="1" d="M 74 11 Q 77 10 76 13 Q 73 14 74 11 Z " /><path fill="rgb(47,47,11)" stroke="rgb(47,47,11)" stroke-width="1" opacity="1" d="M 71.5 12 L 72.5 14 L 71.5 12 Z " /><path fill="rgb(47,47,11)" stroke="rgb(47,47,11)" stroke-width="1" opacity="1" d="M 78.5 12 L 77.5 14 L 78.5 12 Z " /><path fill="rgb(47,47,11)" stroke="rgb(47,47,11)" stroke-width="1" opacity="1" d="M 69.5 13 L 70.5 15 L 69.5 13 Z " /><path fill="rgb(47,47,11)" stroke="rgb(47,47,11)" stroke-width="1" opacity="1" d="M 80.5 13 L 79.5 15 L 80.5 13 Z " /><path fill="rgb(47,47,11)" stroke="rgb(47,47,11)" stroke-width="1" opacity="1" d="M 62.5 16 L 63.5 18 L 62.5 16 Z " /><path fill="rgb(47,47,11)" stroke="rgb(47,47,11)" stroke-width="1" opacity="1" d="M 87.5 16 L 86.5 18 L 87.5 16 Z " /><path fill="rgb(47,47,11)" stroke="rgb(47,47,11)" stroke-width="1" opacity="1" d="M 58.5 19 L 59.5 21 L 58.5 19 Z " /><path fill="rgb(47,47,11)" stroke="rgb(47,47,11)" stroke-width="1" opacity="1" d="M 91.5 19 L 90.5 21 L 91.5 19 Z " /><path fill="rgb(47,47,11)" stroke="rgb(47,47,11)" stroke-width="1" opacity="1" d="M 48.5 22 L 49.5 24 L 48.5 22 Z " /><path fill="rgb(47,47,11)" stroke="rgb(47,47,11)" stroke-width="1" opacity="1" d="M 101.5 22 L 100.5 24 L 101.5 22 Z " /><path fill="rgb(47,47,11)" stroke="rgb(47,47,11)" stroke-width="1" opacity="1" d="M 41.5 25 L 42.5 27 L 41.5 25 Z " /><path fill="rgb(47,47,11)" stroke="rgb(47,47,11)" stroke-width="1" opacity="1" d="M 108.5 25 L 107.5 27 L 108.5 25 Z " /><path fill="rgb(47,47,11)" stroke="rgb(47,47,11)" stroke-width="1" opacity="1" d="M 39.5 26 L 40.5 28 L 39.5 26 Z " /><path fill="rgb(47,47,11)" stroke="rgb(47,47,11)" stroke-width="1" opacity="1" d="M 110.5 26 L 109.5 28 L 110.5 26 Z " /><path fill="rgb(47,47,11)" stroke="rgb(47,47,11)" stroke-width="1" opacity="1" d="M 32.5 29 L 33.5 31 L 32.5 29 Z " /><path fill="rgb(47,47,11)" stroke="rgb(47,47,11)" stroke-width="1" opacity="1" d="M 117.5 29 L 116.5 31 L 117.5 29 Z " /><path fill="rgb(47,47,11)" stroke="rgb(47,47,11)" stroke-width="1" opacity="1" d="M 27.5 31 L 28.5 33 L 27.5 31 Z " /><path fill="rgb(47,47,11)" stroke="rgb(47,47,11)" stroke-width="1" opacity="1" d="M 122.5 31 L 121.5 33 L 122.5 31 Z " /><path fill="rgb(47,47,11)" stroke="rgb(47,47,11)" stroke-width="1" opacity="1" d="M 25.5 32 L 26.5 34 L 25.5 32 Z " /><path fill="rgb(47,47,11)" stroke="rgb(47,47,11)" stroke-width="1" opacity="1" d="M 124.5 32 L 123.5 34 L 124.5 32 Z " /><path fill="rgb(47,47,11)" stroke="rgb(47,47,11)" stroke-width="1" opacity="1" d="M 18.5 35 L 19.5 37 L 18.5 35 Z " /><path fill="rgb(47,47,11)" stroke="rgb(47,47,11)" stroke-width="1" opacity="1" d="M 131.5 35 L 130.5 37 L 131.5 35 Z " /><path fill="rgb(47,47,11)" stroke="rgb(47,47,11)" stroke-width="1" opacity="1" d="M 136.5 50 L 137 52.5 L 136 52.5 L 136.5 50 Z " /><path fill="rgb(47,47,11)" stroke="rgb(47,47,11)" stroke-width="1" opacity="1" d="M 134.5 71 L 135 73.5 L 134 73.5 L 134.5 71 Z " /><path fill="rgb(47,47,11)" stroke="rgb(47,47,11)" stroke-width="1" opacity="1" d="M 132.5 92 L 133 94.5 L 132 94.5 L 132.5 92 Z " /><path fill="rgb(47,47,11)" stroke="rgb(47,47,11)" stroke-width="1" opacity="1" d="M 25.5 112 L 26.5 114 L 25.5 112 Z " /><path fill="rgb(47,47,11)" stroke="rgb(47,47,11)" stroke-width="1" opacity="1" d="M 124.5 112 L 123.5 114 L 124.5 112 Z " /><path fill="rgb(254,254,0)" stroke="rgb(254,254,0)" stroke-width="1" opacity="1" d="M 74.5 13 L 90 19.5 L 74.5 27 L 60 19.5 L 74.5 13 Z " /><path fill="rgb(254,254,0)" stroke="rgb(254,254,0)" stroke-width="1" opacity="1" d="M 54.5 22 L 57.5 22 L 71 28.5 L 56.5 36 L 52.5 36 L 40 30 Q 38.9 27.3 41.5 28 L 54.5 22 Z " /><path fill="rgb(254,254,0)" stroke="rgb(254,254,0)" stroke-width="1" opacity="1" d="M 92.5 22 L 98.5 23 L 110 28 Q 111.1 30.7 108.5 30 L 97.5 36 L 93.5 36 L 79 28.5 L 92.5 22 Z " /><path fill="rgb(254,254,0)" stroke="rgb(254,254,0)" stroke-width="1" opacity="1" d="M 33.5 31 L 50 38.5 L 31.5 47 L 17 38.5 L 33.5 31 Z " /><path fill="rgb(254,254,0)" stroke="rgb(254,254,0)" stroke-width="1" opacity="1" d="M 73.5 31 L 76.5 31 L 92 38.5 L 74.5 47 L 58 38.5 L 73.5 31 Z " /><path fill="rgb(254,254,0)" stroke="rgb(254,254,0)" stroke-width="1" opacity="1" d="M 114.5 31 L 133 38.5 L 117.5 47 L 100 38.5 L 114.5 31 Z " /><path fill="rgb(254,254,0)" stroke="rgb(254,254,0)" stroke-width="1" opacity="1" d="M 52.5 41 L 55.5 41 L 70 48 Q 71.1 50.7 68.5 50 L 51.5 58 L 37 49.5 Q 36.3 47.3 38.5 48 L 52.5 41 Z " /><path fill="rgb(254,254,0)" stroke="rgb(254,254,0)" stroke-width="1" opacity="1" d="M 94.5 41 L 97.5 41 L 113 48 L 111.5 51 L 96.5 58 L 80 50 Q 78.9 47.3 81.5 48 L 94.5 41 Z " /><path fill="rgb(254,254,0)" stroke="rgb(254,254,0)" stroke-width="1" opacity="1" d="M 74.5 51 L 93 60.5 L 74.5 71 L 57 60.5 L 74.5 51 Z " /><path fill="rgb(123,123,47)" stroke="rgb(123,123,47)" stroke-width="1" opacity="1" d="M 38.5 28 L 39.5 30 L 38.5 28 Z " /><path fill="rgb(123,123,47)" stroke="rgb(123,123,47)" stroke-width="1" opacity="1" d="M 71.5 28 L 70.5 30 L 71.5 28 Z " /><path fill="rgb(123,123,47)" stroke="rgb(123,123,47)" stroke-width="1" opacity="1" d="M 78.5 28 L 79.5 30 L 78.5 28 Z " /><path fill="rgb(123,123,47)" stroke="rgb(123,123,47)" stroke-width="1" opacity="1" d="M 111.5 28 L 110.5 30 L 111.5 28 Z " /><path fill="rgb(123,123,47)" stroke="rgb(123,123,47)" stroke-width="1" opacity="1" d="M 136.5 37 L 137.5 39 L 136.5 37 Z " /><path fill="rgb(123,123,47)" stroke="rgb(123,123,47)" stroke-width="1" opacity="1" d="M 12.5 43 L 13 45.5 L 12 45.5 L 12.5 43 Z " /><path fill="rgb(123,123,47)" stroke="rgb(123,123,47)" stroke-width="1" opacity="1" d="M 137.5 43 L 138 45.5 L 137 45.5 L 137.5 43 Z " /><path fill="rgb(123,123,47)" stroke="rgb(123,123,47)" stroke-width="1" opacity="1" d="M 13.5 53 L 14 55.5 L 13 55.5 L 13.5 53 Z " /><path fill="rgb(123,123,47)" stroke="rgb(123,123,47)" stroke-width="1" opacity="1" d="M 136.5 53 L 137 55.5 L 136 55.5 L 136.5 53 Z " /><path fill="rgb(123,123,47)" stroke="rgb(123,123,47)" stroke-width="1" opacity="1" d="M 14.5 63 L 15 66.5 L 14 66.5 L 14.5 63 Z " /><path fill="rgb(123,123,47)" stroke="rgb(123,123,47)" stroke-width="1" opacity="1" d="M 135.5 63 L 136 66.5 L 135 66.5 L 135.5 63 Z " /><path fill="rgb(123,123,47)" stroke="rgb(123,123,47)" stroke-width="1" opacity="1" d="M 15.5 74 L 16 76.5 L 15 76.5 L 15.5 74 Z " /><path fill="rgb(123,123,47)" stroke="rgb(123,123,47)" stroke-width="1" opacity="1" d="M 134.5 74 L 135 76.5 L 134 76.5 L 134.5 74 Z " /><path fill="rgb(123,123,47)" stroke="rgb(123,123,47)" stroke-width="1" opacity="1" d="M 16.5 84 L 17 87.5 L 16 87.5 L 16.5 84 Z " /><path fill="rgb(123,123,47)" stroke="rgb(123,123,47)" stroke-width="1" opacity="1" d="M 133.5 84 L 134 87.5 L 133 87.5 L 133.5 84 Z " /><path fill="rgb(123,123,47)" stroke="rgb(123,123,47)" stroke-width="1" opacity="1" d="M 17.5 95 L 18 97.5 L 17 97.5 L 17.5 95 Z " /><path fill="rgb(123,123,47)" stroke="rgb(123,123,47)" stroke-width="1" opacity="1" d="M 132.5 95 L 133 97.5 L 132 97.5 L 132.5 95 Z " /><path fill="rgb(123,123,47)" stroke="rgb(123,123,47)" stroke-width="1" opacity="1" d="M 19.5 108 L 20.5 110 L 19.5 108 Z " /><path fill="rgb(123,123,47)" stroke="rgb(123,123,47)" stroke-width="1" opacity="1" d="M 130.5 108 L 129.5 110 L 130.5 108 Z " /><path fill="rgb(0,0,158)" stroke="rgb(0,0,158)" stroke-width="1" opacity="1" d="M 14.5 41 L 15 46.5 L 14 46.5 L 14.5 41 Z " /><path fill="rgb(0,0,158)" stroke="rgb(0,0,158)" stroke-width="1" opacity="1" d="M 20.5 44 L 21.5 46 L 20.5 44 Z " /><path fill="rgb(0,0,158)" stroke="rgb(0,0,158)" stroke-width="1" opacity="1" d="M 30.5 51 L 31 57.5 L 30 57.5 L 30.5 51 Z " /><path fill="rgb(0,0,158)" stroke="rgb(0,0,158)" stroke-width="1" opacity="1" d="M 15.5 52 L 16 56.5 L 15 56.5 L 15.5 52 Z " /><path fill="rgb(0,0,158)" stroke="rgb(0,0,158)" stroke-width="1" opacity="1" d="M 31.5 65 L 32 71.5 L 31 71.5 L 31.5 65 Z " /><path fill="rgb(0,0,158)" stroke="rgb(0,0,158)" stroke-width="1" opacity="1" d="M 16 66 L 18 66.5 L 16 67.5 L 16 66 Z " /><path fill="rgb(0,0,158)" stroke="rgb(0,0,158)" stroke-width="1" opacity="1" d="M 23.5 66 L 24.5 68 L 23.5 66 Z " /><path fill="rgb(0,0,158)" stroke="rgb(0,0,158)" stroke-width="1" opacity="1" d="M 61.5 67 L 65 69.5 L 63.5 69 L 61.5 67 Z " /><path fill="rgb(0,0,158)" stroke="rgb(0,0,158)" stroke-width="1" opacity="1" d="M 54.5 68 L 55 81.5 L 54 81.5 L 54.5 68 Z " /><path fill="rgb(0,0,158)" stroke="rgb(0,0,158)" stroke-width="1" opacity="1" d="M 22.5 69 L 23.5 71 L 22.5 69 Z " /><path fill="rgb(0,0,158)" stroke="rgb(0,0,158)" stroke-width="1" opacity="1" d="M 28.5 69 L 29.5 71 L 28.5 69 Z " /><path fill="rgb(0,0,158)" stroke="rgb(0,0,158)" stroke-width="1" opacity="1" d="M 51.5 70 L 52 73.5 L 51 73.5 L 51.5 70 Z " /><path fill="rgb(0,0,158)" stroke="rgb(0,0,158)" stroke-width="1" opacity="1" d="M 27.5 72 L 28.5 74 L 27.5 72 Z " /><path fill="rgb(0,0,158)" stroke="rgb(0,0,158)" stroke-width="1" opacity="1" d="M 70.5 72 L 73 73.5 L 71.5 74 L 70.5 72 Z " /><path fill="rgb(0,0,158)" stroke="rgb(0,0,158)" stroke-width="1" opacity="1" d="M 17.5 73 L 18 78.5 L 17 78.5 L 17.5 73 Z " /><path fill="rgb(0,0,158)" stroke="rgb(0,0,158)" stroke-width="1" opacity="1" d="M 35.5 77 L 36.5 79 L 35.5 77 Z " /><path fill="rgb(0,0,158)" stroke="rgb(0,0,158)" stroke-width="1" opacity="1" d="M 32.5 80 L 33 86.5 L 32 86.5 L 32.5 80 Z " /><path fill="rgb(0,0,158)" stroke="rgb(0,0,158)" stroke-width="1" opacity="1" d="M 40.5 80 L 41.5 82 L 40.5 80 Z " /><path fill="rgb(0,0,158)" stroke="rgb(0,0,158)" stroke-width="1" opacity="1" d="M 35.5 82 L 36 88.5 L 35 88.5 L 35.5 82 Z " /><path fill="rgb(0,0,158)" stroke="rgb(0,0,158)" stroke-width="1" opacity="1" d="M 45.5 83 L 46.5 85 L 45.5 83 Z " /><path fill="rgb(0,0,158)" stroke="rgb(0,0,158)" stroke-width="1" opacity="1" d="M 20.5 86 L 21.5 88 L 20.5 86 Z " /><path fill="rgb(0,0,158)" stroke="rgb(0,0,158)" stroke-width="1" opacity="1" d="M 50.5 86 L 51.5 88 L 50.5 86 Z " /><path fill="rgb(0,0,158)" stroke="rgb(0,0,158)" stroke-width="1" opacity="1" d="M 58.5 87 L 59.5 89 L 58.5 87 Z " /><path fill="rgb(0,0,158)" stroke="rgb(0,0,158)" stroke-width="1" opacity="1" d="M 23.5 88 L 24.5 90 L 23.5 88 Z " /><path fill="rgb(0,0,158)" stroke="rgb(0,0,158)" stroke-width="1" opacity="1" d="M 26.5 90 L 27.5 92 L 26.5 90 Z " /><path fill="rgb(0,0,158)" stroke="rgb(0,0,158)" stroke-width="1" opacity="1" d="M 58.5 91 L 59.5 93 L 58.5 91 Z " /><path fill="rgb(0,0,158)" stroke="rgb(0,0,158)" stroke-width="1" opacity="1" d="M 24.5 92 L 25.5 94 L 24.5 92 Z " /><path fill="rgb(0,0,158)" stroke="rgb(0,0,158)" stroke-width="1" opacity="1" d="M 29.5 92 L 30.5 94 L 29.5 92 Z " /><path fill="rgb(0,0,158)" stroke="rgb(0,0,158)" stroke-width="1" opacity="1" d="M 66.5 92 L 67.5 94 L 66.5 92 Z " /><path fill="rgb(0,0,158)" stroke="rgb(0,0,158)" stroke-width="1" opacity="1" d="M 27.5 94 L 28.5 96 L 27.5 94 Z " /><path fill="rgb(0,0,158)" stroke="rgb(0,0,158)" stroke-width="1" opacity="1" d="M 32.5 94 Q 34.8 93.3 34 95.5 L 32.5 94 Z " /><path fill="rgb(0,0,158)" stroke="rgb(0,0,158)" stroke-width="1" opacity="1" d="M 63.5 94 L 64.5 96 L 63.5 94 Z " /><path fill="rgb(0,0,158)" stroke="rgb(0,0,158)" stroke-width="1" opacity="1" d="M 19.5 95 L 20 99.5 L 19 99.5 L 19.5 95 Z " /><path fill="rgb(0,0,158)" stroke="rgb(0,0,158)" stroke-width="1" opacity="1" d="M 71.5 95 L 72.5 97 L 71.5 95 Z " /><path fill="rgb(0,0,158)" stroke="rgb(0,0,158)" stroke-width="1" opacity="1" d="M 30.5 96 L 31.5 98 L 30.5 96 Z " /><path fill="rgb(0,0,158)" stroke="rgb(0,0,158)" stroke-width="1" opacity="1" d="M 68.5 97 L 69.5 99 L 68.5 97 Z " /><path fill="rgb(0,0,158)" stroke="rgb(0,0,158)" stroke-width="1" opacity="1" d="M 33.5 98 L 34 100.5 L 33 100.5 L 33.5 98 Z " /><path fill="rgb(0,0,158)" stroke="rgb(0,0,158)" stroke-width="1" opacity="1" d="M 38.5 98 L 39.5 100 L 38.5 98 Z " /><path fill="rgb(0,0,158)" stroke="rgb(0,0,158)" stroke-width="1" opacity="1" d="M 55.5 98 L 56 109.5 L 57 110.5 L 55 109.5 L 55.5 98 Z " /><path fill="rgb(0,0,158)" stroke="rgb(0,0,158)" stroke-width="1" opacity="1" d="M 71.5 99 L 74 101.5 L 74 121.5 L 73 121.5 L 73 101.5 L 71.5 99 Z " /><path fill="rgb(0,0,158)" stroke="rgb(0,0,158)" stroke-width="1" opacity="1" d="M 52.5 102 L 53 107.5 L 52 107.5 L 52.5 102 Z " /><path fill="rgb(0,0,158)" stroke="rgb(0,0,158)" stroke-width="1" opacity="1" d="M 20.5 105 L 23 108.5 L 20 106.5 L 20.5 105 Z " /><path fill="rgb(0,0,158)" stroke="rgb(0,0,158)" stroke-width="1" opacity="1" d="M 36.5 105 L 37 107.5 L 36 107.5 L 36.5 105 Z " /><path fill="rgb(0,0,158)" stroke="rgb(0,0,158)" stroke-width="1" opacity="1" d="M 49.5 105 L 50.5 107 L 49.5 105 Z " /><path fill="rgb(0,0,158)" stroke="rgb(0,0,158)" stroke-width="1" opacity="1" d="M 34.5 108 L 35 115.5 L 34 115.5 L 34.5 108 Z " /><path fill="rgb(0,0,158)" stroke="rgb(0,0,158)" stroke-width="1" opacity="1" d="M 25.5 110 L 26.5 112 L 25.5 110 Z " /><path fill="rgb(0,0,158)" stroke="rgb(0,0,158)" stroke-width="1" opacity="1" d="M 58.5 111 L 59.5 113 L 58.5 111 Z " /><path fill="rgb(0,0,158)" stroke="rgb(0,0,158)" stroke-width="1" opacity="1" d="M 28.5 112 L 29.5 114 L 28.5 112 Z " /><path fill="rgb(0,0,158)" stroke="rgb(0,0,158)" stroke-width="1" opacity="1" d="M 61.5 113 L 62.5 115 L 61.5 113 Z " /><path fill="rgb(0,0,158)" stroke="rgb(0,0,158)" stroke-width="1" opacity="1" d="M 31.5 114 L 32.5 116 L 31.5 114 Z " /><path fill="rgb(0,0,158)" stroke="rgb(0,0,158)" stroke-width="1" opacity="1" d="M 57.5 114 L 58.5 116 L 57.5 114 Z " /><path fill="rgb(0,0,158)" stroke="rgb(0,0,158)" stroke-width="1" opacity="1" d="M 64.5 115 L 65.5 117 L 64.5 115 Z " /><path fill="rgb(0,0,158)" stroke="rgb(0,0,158)" stroke-width="1" opacity="1" d="M 60.5 116 L 61.5 118 L 60.5 116 Z " /><path fill="rgb(0,0,158)" stroke="rgb(0,0,158)" stroke-width="1" opacity="1" d="M 63.5 118 L 64.5 120 L 63.5 118 Z " /><path fill="rgb(0,0,158)" stroke="rgb(0,0,158)" stroke-width="1" opacity="1" d="M 53.5 120 L 54 125.5 L 53 125.5 L 53.5 120 Z " /><path fill="rgb(0,0,158)" stroke="rgb(0,0,158)" stroke-width="1" opacity="1" d="M 72.5 124 L 74 125.5 L 74 144 L 71 142.5 L 73 142.5 L 73 125.5 L 72.5 124 Z " /><path fill="rgb(0,0,158)" stroke="rgb(0,0,158)" stroke-width="1" opacity="1" d="M 56.5 127 L 57 131.5 L 56 131.5 L 56.5 127 Z " /><path fill="rgb(0,0,158)" stroke="rgb(0,0,158)" stroke-width="1" opacity="1" d="M 58.5 133 L 59.5 135 L 58.5 133 Z " /><path fill="rgb(0,0,158)" stroke="rgb(0,0,158)" stroke-width="1" opacity="1" d="M 61.5 135 L 62.5 137 L 61.5 135 Z " /><path fill="rgb(0,0,158)" stroke="rgb(0,0,158)" stroke-width="1" opacity="1" d="M 65.5 138 L 66.5 140 L 65.5 138 Z " /><path fill="rgb(0,0,158)" stroke="rgb(0,0,158)" stroke-width="1" opacity="1" d="M 68.5 140 L 69.5 142 L 68.5 140 Z " /><path fill="rgb(172,0,0)" stroke="rgb(172,0,0)" stroke-width="1" opacity="1" d="M 135.5 41 L 136 44.5 L 135 44.5 L 135.5 41 Z " /><path fill="rgb(172,0,0)" stroke="rgb(172,0,0)" stroke-width="1" opacity="1" d="M 134.5 51 L 135 54.5 L 134 54.5 L 134.5 51 Z " /><path fill="rgb(172,0,0)" stroke="rgb(172,0,0)" stroke-width="1" opacity="1" d="M 115.5 52 Q 118.1 51.2 117 54.5 L 116 54.5 L 115.5 52 Z " /><path fill="rgb(172,0,0)" stroke="rgb(172,0,0)" stroke-width="1" opacity="1" d="M 119.5 52 L 120 57.5 L 119 57.5 L 119.5 52 Z " /><path fill="rgb(172,0,0)" stroke="rgb(172,0,0)" stroke-width="1" opacity="1" d="M 104.5 58 L 103.5 60 L 104.5 58 Z " /><path fill="rgb(172,0,0)" stroke="rgb(172,0,0)" stroke-width="1" opacity="1" d="M 94.5 64 L 96 65.5 L 96 75.5 L 95 75.5 L 95 65.5 L 94.5 64 Z " /><path fill="rgb(172,0,0)" stroke="rgb(172,0,0)" stroke-width="1" opacity="1" d="M 115.5 64 L 116 69.5 L 115 69.5 L 115.5 64 Z " /><path fill="rgb(172,0,0)" stroke="rgb(172,0,0)" stroke-width="1" opacity="1" d="M 118.5 67 L 120 70.5 L 118 71.5 L 118.5 67 Z " /><path fill="rgb(172,0,0)" stroke="rgb(172,0,0)" stroke-width="1" opacity="1" d="M 127.5 69 L 126.5 71 L 127.5 69 Z " /><path fill="rgb(172,0,0)" stroke="rgb(172,0,0)" stroke-width="1" opacity="1" d="M 122.5 72 L 121.5 74 L 122.5 72 Z " /><path fill="rgb(172,0,0)" stroke="rgb(172,0,0)" stroke-width="1" opacity="1" d="M 132.5 73 L 133 76.5 L 132 76.5 L 132.5 73 Z " /><path fill="rgb(172,0,0)" stroke="rgb(172,0,0)" stroke-width="1" opacity="1" d="M 109.5 76 L 108.5 78 L 109.5 76 Z " /><path fill="rgb(172,0,0)" stroke="rgb(172,0,0)" stroke-width="1" opacity="1" d="M 98.5 78 L 99 83.5 L 98 83.5 L 98.5 78 Z " /><path fill="rgb(172,0,0)" stroke="rgb(172,0,0)" stroke-width="1" opacity="1" d="M 109.5 80 L 108.5 82 L 109.5 80 Z " /><path fill="rgb(172,0,0)" stroke="rgb(172,0,0)" stroke-width="1" opacity="1" d="M 114.5 80 L 115 85.5 L 114 85.5 L 114.5 80 Z " /><path fill="rgb(172,0,0)" stroke="rgb(172,0,0)" stroke-width="1" opacity="1" d="M 117.5 81 L 118 86.5 L 117 86.5 L 117.5 81 Z " /><path fill="rgb(172,0,0)" stroke="rgb(172,0,0)" stroke-width="1" opacity="1" d="M 131.5 83 L 132 85.5 L 131 85.5 L 131.5 83 Z " /><path fill="rgb(172,0,0)" stroke="rgb(172,0,0)" stroke-width="1" opacity="1" d="M 129.5 86 L 128.5 88 L 129.5 86 Z " /><path fill="rgb(172,0,0)" stroke="rgb(172,0,0)" stroke-width="1" opacity="1" d="M 91.5 91 L 90.5 93 L 91.5 91 Z " /><path fill="rgb(172,0,0)" stroke="rgb(172,0,0)" stroke-width="1" opacity="1" d="M 130.5 94 L 131 97.5 L 130 97.5 L 130.5 94 Z " /><path fill="rgb(172,0,0)" stroke="rgb(172,0,0)" stroke-width="1" opacity="1" d="M 94.5 95 L 95 105.5 L 94 105.5 L 94.5 95 Z " /><path fill="rgb(172,0,0)" stroke="rgb(172,0,0)" stroke-width="1" opacity="1" d="M 113.5 95 L 114 96.5 L 111 98.5 L 113.5 95 Z " /><path fill="rgb(172,0,0)" stroke="rgb(172,0,0)" stroke-width="1" opacity="1" d="M 109.5 99 L 108.5 101 L 109.5 99 Z " /><path fill="rgb(172,0,0)" stroke="rgb(172,0,0)" stroke-width="1" opacity="1" d="M 106.5 101 L 105.5 103 L 106.5 101 Z " /><path fill="rgb(172,0,0)" stroke="rgb(172,0,0)" stroke-width="1" opacity="1" d="M 103.5 103 L 102.5 105 L 103.5 103 Z " /><path fill="rgb(172,0,0)" stroke="rgb(172,0,0)" stroke-width="1" opacity="1" d="M 97.5 104 L 98 107.5 L 97 107.5 L 97.5 104 Z " /><path fill="rgb(172,0,0)" stroke="rgb(172,0,0)" stroke-width="1" opacity="1" d="M 107.5 104 L 106.5 106 L 107.5 104 Z " /><path fill="rgb(172,0,0)" stroke="rgb(172,0,0)" stroke-width="1" opacity="1" d="M 129.5 105 L 130 106.5 L 127 108.5 L 129.5 105 Z " /><path fill="rgb(172,0,0)" stroke="rgb(172,0,0)" stroke-width="1" opacity="1" d="M 104.5 106 L 103.5 108 L 104.5 106 Z " /><path fill="rgb(172,0,0)" stroke="rgb(172,0,0)" stroke-width="1" opacity="1" d="M 101.5 108 L 100.5 110 L 101.5 108 Z " /><path fill="rgb(172,0,0)" stroke="rgb(172,0,0)" stroke-width="1" opacity="1" d="M 125.5 109 L 124.5 111 L 125.5 109 Z " /><path fill="rgb(172,0,0)" stroke="rgb(172,0,0)" stroke-width="1" opacity="1" d="M 98.5 110 L 98 111.5 L 97.5 113 L 97 111.5 L 98.5 110 Z " /><path fill="rgb(172,0,0)" stroke="rgb(172,0,0)" stroke-width="1" opacity="1" d="M 115.5 110 L 116 116.5 L 115 116.5 L 115.5 110 Z " /><path fill="rgb(172,0,0)" stroke="rgb(172,0,0)" stroke-width="1" opacity="1" d="M 112.5 111 L 113 116.5 L 112 116.5 L 112.5 111 Z " /><path fill="rgb(172,0,0)" stroke="rgb(172,0,0)" stroke-width="1" opacity="1" d="M 86.5 114 L 85.5 116 L 86.5 114 Z " /><path fill="rgb(172,0,0)" stroke="rgb(172,0,0)" stroke-width="1" opacity="1" d="M 92.5 114 L 91.5 116 L 92.5 114 Z " /><path fill="rgb(172,0,0)" stroke="rgb(172,0,0)" stroke-width="1" opacity="1" d="M 118.5 114 L 117.5 116 L 118.5 114 Z " /><path fill="rgb(172,0,0)" stroke="rgb(172,0,0)" stroke-width="1" opacity="1" d="M 83.5 116 L 82.5 118 L 83.5 116 Z " /><path fill="rgb(172,0,0)" stroke="rgb(172,0,0)" stroke-width="1" opacity="1" d="M 89.5 116 L 88.5 118 L 89.5 116 Z " /><path fill="rgb(172,0,0)" stroke="rgb(172,0,0)" stroke-width="1" opacity="1" d="M 80.5 118 L 79.5 120 L 80.5 118 Z " /><path fill="rgb(172,0,0)" stroke="rgb(172,0,0)" stroke-width="1" opacity="1" d="M 105.5 123 L 104.5 125 L 105.5 123 Z " /><path fill="rgb(172,0,0)" stroke="rgb(172,0,0)" stroke-width="1" opacity="1" d="M 77.5 124 L 77 125.5 L 76.5 144 L 76 125.5 L 77.5 124 Z " /><path fill="rgb(172,0,0)" stroke="rgb(172,0,0)" stroke-width="1" opacity="1" d="M 93.5 124 L 94 131.5 L 91 133.5 L 93 131.5 L 93.5 124 Z " /><path fill="rgb(172,0,0)" stroke="rgb(172,0,0)" stroke-width="1" opacity="1" d="M 98.5 128 L 97.5 130 L 98.5 128 Z " /><path fill="rgb(172,0,0)" stroke="rgb(172,0,0)" stroke-width="1" opacity="1" d="M 85.5 137 L 84.5 139 L 85.5 137 Z " /><path fill="rgb(172,0,0)" stroke="rgb(172,0,0)" stroke-width="1" opacity="1" d="M 82.5 139 L 81.5 141 L 82.5 139 Z " /><path fill="rgb(0,0,241)" stroke="rgb(0,0,241)" stroke-width="1" opacity="1" d="M 33 52 L 36 53.5 L 34 53.5 L 33.5 60 L 33 52 Z " /><path fill="rgb(0,0,241)" stroke="rgb(0,0,241)" stroke-width="1" opacity="1" d="M 43.5 57 L 47 59.5 L 45.5 59 L 43.5 57 Z " /><path fill="rgb(0,0,241)" stroke="rgb(0,0,241)" stroke-width="1" opacity="1" d="M 30.5 58 L 31 60.5 L 30 60.5 L 30.5 58 Z " /><path fill="rgb(0,0,241)" stroke="rgb(0,0,241)" stroke-width="1" opacity="1" d="M 16.5 61 L 17.5 63 L 16.5 61 Z " /><path fill="rgb(0,0,241)" stroke="rgb(0,0,241)" stroke-width="1" opacity="1" d="M 54.5 64 L 55 67.5 L 54 67.5 L 54.5 64 Z " /><path fill="rgb(0,0,241)" stroke="rgb(0,0,241)" stroke-width="1" opacity="1" d="M 34.5 65 L 35 73.5 L 34 73.5 L 34.5 65 Z " /><path fill="rgb(0,0,241)" stroke="rgb(0,0,241)" stroke-width="1" opacity="1" d="M 51.5 74 L 52 83.5 L 51 83.5 L 51.5 74 Z " /><path fill="rgb(0,0,241)" stroke="rgb(0,0,241)" stroke-width="1" opacity="1" d="M 38.5 75 L 39.5 77 L 38.5 75 Z " /><path fill="rgb(0,0,241)" stroke="rgb(0,0,241)" stroke-width="1" opacity="1" d="M 41.5 77 L 42.5 79 L 41.5 77 Z " /><path fill="rgb(0,0,241)" stroke="rgb(0,0,241)" stroke-width="1" opacity="1" d="M 35.5 79 L 36 81.5 L 35 81.5 L 35.5 79 Z " /><path fill="rgb(0,0,241)" stroke="rgb(0,0,241)" stroke-width="1" opacity="1" d="M 46.5 80 L 47.5 82 L 46.5 80 Z " /><path fill="rgb(0,0,241)" stroke="rgb(0,0,241)" stroke-width="1" opacity="1" d="M 51.5 88 L 52 91.5 L 51 91.5 L 51.5 88 Z " /><path fill="rgb(0,0,241)" stroke="rgb(0,0,241)" stroke-width="1" opacity="1" d="M 55.5 93 L 56 97.5 L 55 97.5 L 55.5 93 Z " /><path fill="rgb(0,0,241)" stroke="rgb(0,0,241)" stroke-width="1" opacity="1" d="M 36.5 100 Q 39.3 101.2 37 102.5 L 36.5 105 L 36.5 100 Z " /><path fill="rgb(0,0,241)" stroke="rgb(0,0,241)" stroke-width="1" opacity="1" d="M 33.5 101 L 34 103.5 L 33 103.5 L 33.5 101 Z " /><path fill="rgb(0,0,241)" stroke="rgb(0,0,241)" stroke-width="1" opacity="1" d="M 42.5 104 L 43.5 106 L 42.5 104 Z " /><path fill="rgb(0,0,241)" stroke="rgb(0,0,241)" stroke-width="1" opacity="1" d="M 45.5 106 L 46.5 108 L 45.5 106 Z " /><path fill="rgb(0,0,241)" stroke="rgb(0,0,241)" stroke-width="1" opacity="1" d="M 48.5 108 L 49.5 110 L 48.5 108 Z " /><path fill="rgb(0,0,241)" stroke="rgb(0,0,241)" stroke-width="1" opacity="1" d="M 51.5 110 Q 53.8 110.8 53 114.5 L 52 114.5 L 51.5 110 Z " /><path fill="rgb(0,0,241)" stroke="rgb(0,0,241)" stroke-width="1" opacity="1" d="M 37.5 112 L 38 118.5 L 40 120.5 L 37 118.5 L 37.5 112 Z " /><path fill="rgb(0,0,241)" stroke="rgb(0,0,241)" stroke-width="1" opacity="1" d="M 41.5 121 L 43.5 124 L 41.5 121 Z " /><path fill="rgb(0,0,241)" stroke="rgb(0,0,241)" stroke-width="1" opacity="1" d="M 56.5 122 L 57 126.5 L 56 126.5 L 56.5 122 Z " /><path fill="rgb(0,0,241)" stroke="rgb(0,0,241)" stroke-width="1" opacity="1" d="M 45.5 124 L 46.5 126 L 45.5 124 Z " /><path fill="rgb(0,0,241)" stroke="rgb(0,0,241)" stroke-width="1" opacity="1" d="M 48.5 126 L 49.5 128 L 48.5 126 Z " /><path fill="rgb(0,0,241)" stroke="rgb(0,0,241)" stroke-width="1" opacity="1" d="M 53.5 126 L 54 130.5 L 51 128.5 L 53 128.5 L 53.5 126 Z " /><path fill="rgb(56,2,1)" stroke="rgb(56,2,1)" stroke-width="1" opacity="1" d="M 135.5 45 L 136 47.5 L 135 47.5 L 135.5 45 Z " /><path fill="rgb(56,2,1)" stroke="rgb(56,2,1)" stroke-width="1" opacity="1" d="M 120.5 49 L 120 50.5 L 119.5 52 L 119 50.5 L 120.5 49 Z " /><path fill="rgb(56,2,1)" stroke="rgb(56,2,1)" stroke-width="1" opacity="1" d="M 116.5 55 L 117 60.5 L 116 60.5 L 116.5 55 Z " /><path fill="rgb(56,2,1)" stroke="rgb(56,2,1)" stroke-width="1" opacity="1" d="M 134.5 55 L 135 58.5 L 134 58.5 L 134.5 55 Z " /><path fill="rgb(56,2,1)" stroke="rgb(56,2,1)" stroke-width="1" opacity="1" d="M 118.5 61 L 119 66.5 L 118 66.5 L 118.5 61 Z " /><path fill="rgb(56,2,1)" stroke="rgb(56,2,1)" stroke-width="1" opacity="1" d="M 133.5 65 L 134 69.5 L 133 69.5 L 133.5 65 Z " /><path fill="rgb(56,2,1)" stroke="rgb(56,2,1)" stroke-width="1" opacity="1" d="M 98.5 68 L 99 77.5 L 98 77.5 L 98.5 68 Z " /><path fill="rgb(56,2,1)" stroke="rgb(56,2,1)" stroke-width="1" opacity="1" d="M 123.5 68 L 122.5 70 L 123.5 68 Z " /><path fill="rgb(56,2,1)" stroke="rgb(56,2,1)" stroke-width="1" opacity="1" d="M 115.5 70 L 116 73.5 L 115 73.5 L 115.5 70 Z " /><path fill="rgb(56,2,1)" stroke="rgb(56,2,1)" stroke-width="1" opacity="1" d="M 77.5 73 L 77 74.5 L 77 95.5 L 78 96.5 L 76 97 L 76 74.5 L 77.5 73 Z " /><path fill="rgb(56,2,1)" stroke="rgb(56,2,1)" stroke-width="1" opacity="1" d="M 113.5 74 L 112.5 76 L 113.5 74 Z " /><path fill="rgb(56,2,1)" stroke="rgb(56,2,1)" stroke-width="1" opacity="1" d="M 95.5 76 L 96 85.5 L 95 85.5 L 95.5 76 Z " /><path fill="rgb(56,2,1)" stroke="rgb(56,2,1)" stroke-width="1" opacity="1" d="M 117.5 76 L 118 80.5 L 117 80.5 L 117.5 76 Z " /><path fill="rgb(56,2,1)" stroke="rgb(56,2,1)" stroke-width="1" opacity="1" d="M 132.5 77 L 133 79.5 L 132 79.5 L 132.5 77 Z " /><path fill="rgb(56,2,1)" stroke="rgb(56,2,1)" stroke-width="1" opacity="1" d="M 105.5 82 L 104.5 84 L 105.5 82 Z " /><path fill="rgb(56,2,1)" stroke="rgb(56,2,1)" stroke-width="1" opacity="1" d="M 114.5 86 L 115 90.5 L 114 90.5 L 114.5 86 Z " /><path fill="rgb(56,2,1)" stroke="rgb(56,2,1)" stroke-width="1" opacity="1" d="M 131.5 88 L 132 90.5 L 131 90.5 L 131.5 88 Z " /><path fill="rgb(56,2,1)" stroke="rgb(56,2,1)" stroke-width="1" opacity="1" d="M 125.5 89 L 124.5 91 L 125.5 89 Z " /><path fill="rgb(56,2,1)" stroke="rgb(56,2,1)" stroke-width="1" opacity="1" d="M 116.5 90 L 117 95.5 L 116 95.5 L 116.5 90 Z " /><path fill="rgb(56,2,1)" stroke="rgb(56,2,1)" stroke-width="1" opacity="1" d="M 122.5 91 L 121.5 93 L 122.5 91 Z " /><path fill="rgb(56,2,1)" stroke="rgb(56,2,1)" stroke-width="1" opacity="1" d="M 119.5 93 L 118.5 95 L 119.5 93 Z " /><path fill="rgb(56,2,1)" stroke="rgb(56,2,1)" stroke-width="1" opacity="1" d="M 123.5 93 L 122.5 95 L 123.5 93 Z " /><path fill="rgb(56,2,1)" stroke="rgb(56,2,1)" stroke-width="1" opacity="1" d="M 80.5 94 L 79.5 96 L 80.5 94 Z " /><path fill="rgb(56,2,1)" stroke="rgb(56,2,1)" stroke-width="1" opacity="1" d="M 97.5 94 L 98 103.5 L 97 103.5 L 97.5 94 Z " /><path fill="rgb(56,2,1)" stroke="rgb(56,2,1)" stroke-width="1" opacity="1" d="M 120.5 95 L 119.5 97 L 120.5 95 Z " /><path fill="rgb(56,2,1)" stroke="rgb(56,2,1)" stroke-width="1" opacity="1" d="M 117.5 97 L 116.5 99 L 117.5 97 Z " /><path fill="rgb(56,2,1)" stroke="rgb(56,2,1)" stroke-width="1" opacity="1" d="M 130.5 98 L 131 101.5 L 130 101.5 L 130.5 98 Z " /><path fill="rgb(56,2,1)" stroke="rgb(56,2,1)" stroke-width="1" opacity="1" d="M 76.5 100 L 77 121.5 L 76 121.5 L 76.5 100 Z " /><path fill="rgb(56,2,1)" stroke="rgb(56,2,1)" stroke-width="1" opacity="1" d="M 111.5 101 L 110.5 103 L 111.5 101 Z " /><path fill="rgb(56,2,1)" stroke="rgb(56,2,1)" stroke-width="1" opacity="1" d="M 113.5 102 L 114 106.5 L 113 106.5 L 113.5 102 Z " /><path fill="rgb(56,2,1)" stroke="rgb(56,2,1)" stroke-width="1" opacity="1" d="M 115.5 105 L 116 109.5 L 115 109.5 L 115.5 105 Z " /><path fill="rgb(56,2,1)" stroke="rgb(56,2,1)" stroke-width="1" opacity="1" d="M 94.5 106 L 95 109.5 L 93 110.5 L 94.5 106 Z " /><path fill="rgb(56,2,1)" stroke="rgb(56,2,1)" stroke-width="1" opacity="1" d="M 99.5 106 L 98.5 108 L 99.5 106 Z " /><path fill="rgb(56,2,1)" stroke="rgb(56,2,1)" stroke-width="1" opacity="1" d="M 93.5 113 Q 96.5 112.1 95 116.5 L 94 116.5 L 93.5 113 Z " /><path fill="rgb(56,2,1)" stroke="rgb(56,2,1)" stroke-width="1" opacity="1" d="M 120.5 113 L 119.5 115 L 120.5 113 Z " /><path fill="rgb(56,2,1)" stroke="rgb(56,2,1)" stroke-width="1" opacity="1" d="M 110.5 120 L 109.5 122 L 110.5 120 Z " /><path fill="rgb(56,2,1)" stroke="rgb(56,2,1)" stroke-width="1" opacity="1" d="M 96.5 121 L 97 130.5 L 96 130.5 L 96.5 121 Z " /><path fill="rgb(56,2,1)" stroke="rgb(56,2,1)" stroke-width="1" opacity="1" d="M 107.5 122 L 106.5 124 L 107.5 122 Z " /><path fill="rgb(56,2,1)" stroke="rgb(56,2,1)" stroke-width="1" opacity="1" d="M 100.5 127 L 99.5 129 L 100.5 127 Z " /><path fill="rgb(56,2,1)" stroke="rgb(56,2,1)" stroke-width="1" opacity="1" d="M 87.5 136 L 86.5 138 L 87.5 136 Z " /><path fill="rgb(56,2,1)" stroke="rgb(56,2,1)" stroke-width="1" opacity="1" d="M 80.5 141 L 79.5 143 L 80.5 141 Z " /><path fill="rgb(56,2,1)" stroke="rgb(56,2,1)" stroke-width="1" opacity="1" d="M 77.5 143 L 76.5 145 L 77.5 143 Z " /><path fill="rgb(0,0,4)" stroke="rgb(0,0,4)" stroke-width="1" opacity="1" d="M 72.5 12 L 74 12.5 L 58 19.5 L 75.5 28 L 92 19.5 L 76 12.5 L 77.5 12 L 137 38.5 L 138 40.5 L 136 50.5 L 134 81.5 L 132 92.5 L 132 102.5 L 131 107.5 L 128.5 110 L 77.5 146 L 72.5 146 L 19 107.5 L 18 93.5 L 17 92.5 L 17 82.5 L 16 81.5 L 16 72.5 L 15 71.5 L 15 61.5 L 14 60.5 L 14 51.5 L 12 40.5 L 14.5 37 L 72.5 12 Z M 55 21 L 38 29 L 53 37 Q 65 35 72 29 L 60 22 L 55 21 Z M 94 21 L 78 29 L 95 37 L 98 37 L 112 29 L 99 22 L 94 21 Z M 34 30 L 15 39 L 32 48 L 52 39 L 34 30 Z M 74 30 L 57 39 L 75 48 L 93 39 L 77 30 L 74 30 Z M 115 30 L 98 39 L 118 48 L 135 39 L 115 30 Z M 53 40 L 37 48 Q 34 47 35 50 L 52 59 L 71 50 Q 73 51 72 48 L 56 40 L 53 40 Z M 95 40 L 80 48 Q 77 47 78 50 L 97 59 L 103 57 L 114 50 Q 116 51 115 48 L 98 40 L 95 40 Z M 15 41 L 16 63 L 31 71 L 32 72 L 31 52 L 30 49 L 15 41 Z M 135 41 L 121 49 L 119 51 L 119 61 L 118 62 L 119 72 L 134 63 Q 136 58 135 49 L 136 48 Q 137 40 135 41 Z M 34 51 L 34 74 L 52 84 L 51 62 L 34 51 Z M 74 51 L 55 61 L 74 71 L 77 71 L 95 61 L 77 51 L 74 51 Z M 117 51 L 101 60 L 99 62 Q 101 67 98 69 L 99 84 L 116 74 L 116 62 L 117 61 L 117 51 Z M 96 63 L 78 73 L 76 75 L 76 97 L 96 86 L 96 63 Z M 54 64 L 54 82 L 55 86 L 73 97 L 73 73 L 54 64 Z M 134 65 L 121 73 L 117 77 L 117 90 L 116 91 L 117 96 L 131 87 L 132 86 L 133 71 L 134 70 L 134 65 Z M 16 66 L 17 69 L 18 86 L 32 94 L 34 96 L 33 94 L 32 76 L 16 66 Z M 36 77 L 36 98 L 52 107 L 53 108 L 52 88 L 36 77 Z M 115 77 L 100 86 Q 95 95 97 108 L 114 98 L 114 92 L 115 91 L 115 77 Z M 132 88 L 118 97 L 116 99 Q 118 104 115 106 L 115 117 L 130 108 L 131 102 L 131 92 L 132 91 L 132 88 Z M 19 89 L 19 91 L 20 107 L 34 116 L 35 117 L 34 98 L 19 89 Z M 95 89 L 76 100 L 77 122 L 95 110 L 95 89 Z M 55 90 L 55 110 L 74 122 L 74 102 Q 66 94 55 90 Z M 37 100 L 37 119 L 52 129 L 54 131 L 53 112 L 37 100 Z M 114 100 L 100 109 L 97 112 L 97 121 L 96 122 L 97 131 L 110 122 L 113 119 L 113 108 L 114 107 L 114 100 Z M 94 113 L 76 126 L 77 145 L 94 133 L 94 118 L 95 117 Q 96 112 94 113 Z M 56 114 L 56 132 L 73 144 L 74 144 L 74 126 L 56 114 Z " /><path fill="rgb(238,0,0)" stroke="rgb(238,0,0)" stroke-width="1" opacity="1" d="M 134.5 42 L 135 50.5 L 133 63 L 119 70 L 120 50.5 L 121.5 49 L 134.5 42 Z " /><path fill="rgb(238,0,0)" stroke="rgb(238,0,0)" stroke-width="1" opacity="1" d="M 114.5 53 L 116 53.5 L 116 63.5 L 115 64.5 L 115 72.5 L 112.5 75 L 99.5 83 L 99 62.5 L 114.5 53 Z " /><path fill="rgb(238,0,0)" stroke="rgb(238,0,0)" stroke-width="1" opacity="1" d="M 95.5 64 L 95 65.5 L 95 85.5 L 93.5 86 L 77.5 96 L 77 74.5 L 95.5 64 Z " /><path fill="rgb(238,0,0)" stroke="rgb(238,0,0)" stroke-width="1" opacity="1" d="M 131.5 67 Q 134.3 66.4 133 72.5 L 132 73.5 Q 132.9 81.8 131 86 L 117 94 L 118 75 L 131.5 67 Z " /><path fill="rgb(238,0,0)" stroke="rgb(238,0,0)" stroke-width="1" opacity="1" d="M 113.5 78 Q 115.8 77.3 115 79.5 L 114 80.5 L 114 94.5 L 110.5 99 L 98.5 107 L 98 88.5 L 113.5 78 Z " /><path fill="rgb(238,0,0)" stroke="rgb(238,0,0)" stroke-width="1" opacity="1" d="M 94.5 90 L 95 94.5 L 94 95.5 L 94 109.5 L 92.5 111 L 77 120 L 77 100.5 L 78.5 100 L 94.5 90 Z " /><path fill="rgb(238,0,0)" stroke="rgb(238,0,0)" stroke-width="1" opacity="1" d="M 129.5 90 Q 132.5 89.1 131 93.5 L 130 94.5 L 130 104.5 L 126.5 109 L 116.5 116 L 116 101.5 L 117 98 L 129.5 90 Z " /><path fill="rgb(238,0,0)" stroke="rgb(238,0,0)" stroke-width="1" opacity="1" d="M 111.5 102 L 113 102.5 L 113 110.5 Q 110.3 112.3 112 118.5 L 109.5 121 L 97.5 129 L 97 113.5 L 99.5 110 L 111.5 102 Z " /><path fill="rgb(238,0,0)" stroke="rgb(238,0,0)" stroke-width="1" opacity="1" d="M 93.5 114 L 94 123.5 Q 91.2 125.3 93 131.5 L 89.5 135 L 77.5 143 L 77 125.5 L 93.5 114 Z " /><path fill="rgb(220,220,220)" stroke="rgb(220,220,220)" stroke-width="1" opacity="1" d="M 12.5 46 L 13 48.5 L 12 48.5 L 12.5 46 Z " /><path fill="rgb(220,220,220)" stroke="rgb(220,220,220)" stroke-width="1" opacity="1" d="M 137.5 46 L 138 48.5 L 137 48.5 L 137.5 46 Z " /><path fill="rgb(220,220,220)" stroke="rgb(220,220,220)" stroke-width="1" opacity="1" d="M 13.5 56 L 14 58.5 L 13 58.5 L 13.5 56 Z " /><path fill="rgb(220,220,220)" stroke="rgb(220,220,220)" stroke-width="1" opacity="1" d="M 136.5 56 L 137 58.5 L 136 58.5 L 136.5 56 Z " /><path fill="rgb(220,220,220)" stroke="rgb(220,220,220)" stroke-width="1" opacity="1" d="M 14.5 67 L 15 69.5 L 14 69.5 L 14.5 67 Z " /><path fill="rgb(220,220,220)" stroke="rgb(220,220,220)" stroke-width="1" opacity="1" d="M 135.5 67 L 136 69.5 L 135 69.5 L 135.5 67 Z " /><path fill="rgb(220,220,220)" stroke="rgb(220,220,220)" stroke-width="1" opacity="1" d="M 15.5 77 L 16 79.5 L 15 79.5 L 15.5 77 Z " /><path fill="rgb(220,220,220)" stroke="rgb(220,220,220)" stroke-width="1" opacity="1" d="M 134.5 77 L 135 79.5 L 134 79.5 L 134.5 77 Z " /><path fill="rgb(220,220,220)" stroke="rgb(220,220,220)" stroke-width="1" opacity="1" d="M 16.5 88 L 17 90.5 L 16 90.5 L 16.5 88 Z " /><path fill="rgb(220,220,220)" stroke="rgb(220,220,220)" stroke-width="1" opacity="1" d="M 133.5 88 L 134 90.5 L 133 90.5 L 133.5 88 Z " /><path fill="rgb(220,220,220)" stroke="rgb(220,220,220)" stroke-width="1" opacity="1" d="M 17.5 98 L 18 100.5 L 17 100.5 L 17.5 98 Z " /><path fill="rgb(220,220,220)" stroke="rgb(220,220,220)" stroke-width="1" opacity="1" d="M 132.5 98 L 133 100.5 L 132 100.5 L 132.5 98 Z " /><path fill="rgb(220,220,220)" stroke="rgb(220,220,220)" stroke-width="1" opacity="1" d="M 24.5 112 L 25.5 114 L 24.5 112 Z " /><path fill="rgb(220,220,220)" stroke="rgb(220,220,220)" stroke-width="1" opacity="1" d="M 125.5 112 L 124.5 114 L 125.5 112 Z " /><path fill="rgb(220,220,220)" stroke="rgb(220,220,220)" stroke-width="1" opacity="1" d="M 34.5 119 L 35.5 121 L 34.5 119 Z " /><path fill="rgb(220,220,220)" stroke="rgb(220,220,220)" stroke-width="1" opacity="1" d="M 115.5 119 L 114.5 121 L 115.5 119 Z " /><path fill="rgb(220,220,220)" stroke="rgb(220,220,220)" stroke-width="1" opacity="1" d="M 44.5 126 L 45.5 128 L 44.5 126 Z " /><path fill="rgb(220,220,220)" stroke="rgb(220,220,220)" stroke-width="1" opacity="1" d="M 105.5 126 L 104.5 128 L 105.5 126 Z " /><path fill="rgb(220,220,220)" stroke="rgb(220,220,220)" stroke-width="1" opacity="1" d="M 54.5 133 L 55.5 135 L 54.5 133 Z " /><path fill="rgb(220,220,220)" stroke="rgb(220,220,220)" stroke-width="1" opacity="1" d="M 95.5 133 L 94.5 135 L 95.5 133 Z " /><path fill="rgb(220,220,220)" stroke="rgb(220,220,220)" stroke-width="1" opacity="1" d="M 64.5 140 L 65.5 142 L 64.5 140 Z " /><path fill="rgb(220,220,220)" stroke="rgb(220,220,220)" stroke-width="1" opacity="1" d="M 85.5 140 L 84.5 142 L 85.5 140 Z " /><path fill="rgb(220,220,220)" stroke="rgb(220,220,220)" stroke-width="1" opacity="1" d="M 71.5 145 L 72.5 147 L 71.5 145 Z " /><path fill="rgb(0,0,242)" stroke="rgb(0,0,242)" stroke-width="1" opacity="1" d="M 15.5 42 L 30 50 L 31 70 Q 22.1 67.1 16 60.5 L 15.5 42 Z " /><path fill="rgb(0,0,242)" stroke="rgb(0,0,242)" stroke-width="1" opacity="1" d="M 34.5 53 L 50 61 L 51 63.5 L 51 82.5 L 49.5 82 L 35 74 L 34.5 53 Z " /><path fill="rgb(0,0,242)" stroke="rgb(0,0,242)" stroke-width="1" opacity="1" d="M 55 65 L 73 74 L 72.5 96 L 55 84.5 L 55 65 Z " /><path fill="rgb(0,0,242)" stroke="rgb(0,0,242)" stroke-width="1" opacity="1" d="M 17.5 67 L 32 76.5 L 32 88.5 L 33 94 L 19 86 L 17.5 67 Z " /><path fill="rgb(0,0,242)" stroke="rgb(0,0,242)" stroke-width="1" opacity="1" d="M 35.5 78 L 51 87 L 52 92.5 L 52 106.5 L 49.5 105 L 37 96.5 Q 34.3 90.3 36 79.5 L 35.5 78 Z " /><path fill="rgb(0,0,242)" stroke="rgb(0,0,242)" stroke-width="1" opacity="1" d="M 19.5 90 L 33 99.5 L 34 115.5 L 31.5 114 L 21 106.5 L 19.5 90 Z " /><path fill="rgb(0,0,242)" stroke="rgb(0,0,242)" stroke-width="1" opacity="1" d="M 55.5 90 L 73 101.5 L 73 119.5 L 71.5 120 L 56 110 L 56 93.5 L 55.5 90 Z " /><path fill="rgb(0,0,242)" stroke="rgb(0,0,242)" stroke-width="1" opacity="1" d="M 37 102 L 40 102 Q 38.9 104.7 41.5 104 L 52 111.5 Q 54.3 118.2 53 128.5 L 51.5 128 L 38 118.5 L 37 102 Z " /><path fill="rgb(0,0,242)" stroke="rgb(0,0,242)" stroke-width="1" opacity="1" d="M 56.5 114 L 73 125.5 L 72.5 143 L 57 131.5 L 56.5 114 Z " /><path fill="rgb(254,254,254)" stroke="rgb(254,254,254)" stroke-width="1" opacity="1" d="M 0 0 L 150 0 L 150 150 L 0 150 L 0 0 Z M 73 11 L 15 36 L 12 39 L 12 49 L 13 50 L 13 59 L 14 60 L 14 70 L 15 71 L 18 108 L 73 147 L 79 146 L 129 111 L 132 108 Q 131 102 133 101 L 136 60 L 138 49 L 138 39 L 136 36 L 78 11 L 73 11 Z " /></svg>